<?xml version="1.0" standalone="no"?>
<!DOCTYPE svg PUBLIC "-//W3C//DTD SVG 20010904//EN"
 "http://www.w3.org/TR/2001/REC-SVG-20010904/DTD/svg10.dtd">
<svg version="1.0" xmlns="http://www.w3.org/2000/svg"
 width="217.000000pt" height="217.000000pt" viewBox="0 0 217.000000 217.000000"
 preserveAspectRatio="xMidYMid meet">
<metadata>
Created by potrace 1.11, written by Peter Selinger 2001-2013
</metadata>
<g transform="translate(0.000000,217.000000) scale(0.100000,-0.100000)"
fill="#000000" stroke="none">
<path d="M100 2143 c0 -8 5 -13 12 -11 18 6 21 25 3 25 -8 0 -15 -7 -15 -14z"/>
<path d="M155 2150 c3 -5 8 -10 11 -10 2 0 4 5 4 10 0 6 -5 10 -11 10 -5 0 -7
-4 -4 -10z"/>
<path d="M1074 2096 c-1 -60 0 -63 17 -48 10 9 16 19 13 23 -3 5 2 22 11 39
18 35 13 50 -18 50 -20 0 -22 -5 -23 -64z"/>
<path d="M981 2099 c-14 -41 -14 -52 1 -47 10 4 23 78 13 78 -1 0 -8 -14 -14
-31z"/>
<path d="M240 2110 c0 -5 5 -10 11 -10 5 0 7 5 4 10 -3 6 -8 10 -11 10 -2 0
-4 -4 -4 -10z"/>
<path d="M1392 2112 c-15 -5 -52 -84 -52 -109 0 -13 3 -13 16 -2 13 10 17 10
26 -2 8 -11 9 -10 4 5 -4 12 1 27 13 40 15 16 19 28 13 47 -4 15 -12 24 -20
21z"/>
<path d="M283 2095 c0 -8 4 -12 9 -9 4 3 8 9 8 15 0 5 -4 9 -8 9 -5 0 -9 -7
-9 -15z"/>
<path d="M1255 2099 c-4 -6 -5 -12 -2 -15 2 -3 7 2 10 11 7 17 1 20 -8 4z"/>
<path d="M900 2080 c0 -5 10 -19 22 -30 14 -12 19 -24 13 -28 -6 -4 -11 -17
-12 -29 -3 -22 -2 -22 15 -5 19 17 19 29 0 69 -11 23 -38 39 -38 23z"/>
<path d="M210 2061 c0 -5 7 -12 16 -15 14 -5 15 -4 4 9 -14 17 -20 19 -20 6z"/>
<path d="M1131 2054 c0 -11 3 -14 6 -6 3 7 2 16 -1 19 -3 4 -6 -2 -5 -13z"/>
<path d="M185 2050 c3 -5 8 -10 11 -10 2 0 4 5 4 10 0 6 -5 10 -11 10 -5 0 -7
-4 -4 -10z"/>
<path d="M1156 2044 c-23 -23 -20 -30 4 -9 11 10 20 20 20 22 0 7 -9 2 -24
-13z"/>
<path d="M1217 2053 c-12 -11 -8 -23 8 -23 8 0 15 7 15 15 0 16 -12 20 -23 8z"/>
<path d="M350 2041 c0 -5 5 -13 10 -16 6 -3 10 -2 10 4 0 5 -4 13 -10 16 -5 3
-10 2 -10 -4z"/>
<path d="M250 2030 c0 -6 -4 -8 -10 -5 -5 3 -10 1 -10 -4 0 -13 10 -14 29 -2
9 6 10 11 2 15 -6 4 -11 2 -11 -4z"/>
<path d="M1522 2018 c-7 -7 -12 -18 -12 -26 0 -7 -3 -11 -8 -8 -4 2 -13 -7
-19 -21 -10 -21 -10 -24 3 -19 9 4 14 -1 14 -15 0 -16 -4 -19 -17 -14 -13 4
-15 3 -7 -5 12 -12 44 -4 44 11 0 5 7 9 16 9 9 0 13 -5 9 -12 -4 -7 1 -4 9 7
15 18 15 20 -6 28 -14 5 -24 3 -30 -5 -15 -21 2 34 18 60 15 23 6 30 -14 10z"/>
<path d="M890 2010 c0 -8 5 -22 10 -30 9 -13 10 -13 10 0 0 8 -5 22 -10 30 -9
13 -10 13 -10 0z"/>
<path d="M995 2000 c-4 -11 -10 -18 -15 -15 -13 8 -24 -15 -12 -27 14 -14 45
10 38 29 -3 7 -1 13 4 13 6 0 10 5 10 10 0 18 -18 10 -25 -10z"/>
<path d="M693 1998 c-13 -6 -23 -20 -23 -30 0 -18 2 -18 15 -4 11 10 26 13 45
9 24 -4 30 -2 30 11 0 10 -4 15 -9 11 -5 -3 -12 -1 -16 5 -7 12 -13 12 -42 -2z"/>
<path d="M1155 2000 c-3 -5 -1 -10 4 -10 6 0 11 5 11 10 0 6 -2 10 -4 10 -3 0
-8 -4 -11 -10z"/>
<path d="M556 1985 c-3 -9 -6 -24 -5 -33 0 -9 5 -4 10 12 9 32 6 48 -5 21z"/>
<path d="M1225 1991 c2 -4 0 -13 -6 -21 -7 -12 -9 -12 -9 -1 0 11 -3 11 -14 1
-8 -6 -12 -19 -9 -27 5 -12 2 -15 -10 -10 -9 3 -17 3 -17 -2 0 -19 15 -19 40
-1 16 11 36 20 45 20 9 0 13 5 9 11 -3 6 -1 15 6 19 8 5 3 9 -14 12 -14 3 -24
2 -21 -1z"/>
<path d="M1658 1979 c-21 -10 -42 -27 -47 -37 -8 -15 -5 -18 17 -17 32 0 51
23 31 36 -11 7 -11 9 2 9 9 0 22 7 29 15 16 19 13 18 -32 -6z m-18 -29 c0 -5
-5 -10 -11 -10 -5 0 -7 5 -4 10 3 6 8 10 11 10 2 0 4 -4 4 -10z"/>
<path d="M1960 1991 c0 -5 5 -13 10 -16 6 -3 10 -2 10 4 0 5 -4 13 -10 16 -5
3 -10 2 -10 -4z"/>
<path d="M1100 1965 c-7 -9 -11 -17 -9 -20 3 -2 10 5 17 15 14 24 10 26 -8 5z"/>
<path d="M581 1954 c0 -11 3 -14 6 -6 3 7 2 16 -1 19 -3 4 -6 -2 -5 -13z"/>
<path d="M405 1949 c-5 -7 7 -25 29 -45 35 -32 65 -46 51 -25 -3 5 -1 12 5 16
5 3 10 16 10 28 0 18 -2 19 -10 7 -9 -15 -11 -13 -14 13 -1 16 -62 22 -71 6z"/>
<path d="M210 1932 c0 -10 6 -24 13 -32 6 -8 2 -6 -11 4 -12 11 -25 16 -29 13
-3 -4 -1 -7 5 -7 7 0 12 -6 12 -13 0 -7 13 -13 30 -13 20 -1 30 3 30 13 0 8
-5 11 -10 8 -6 -3 -14 5 -20 19 -11 30 -20 34 -20 8z"/>
<path d="M268 1943 c-10 -2 -18 -9 -18 -14 0 -12 17 -12 25 1 4 6 11 7 17 4 7
-4 8 -2 4 4 -4 7 -8 11 -9 11 -1 -1 -10 -3 -19 -6z"/>
<path d="M1015 1940 c3 -5 8 -10 11 -10 2 0 4 5 4 10 0 6 -5 10 -11 10 -5 0
-7 -4 -4 -10z"/>
<path d="M688 1933 c7 -3 16 -2 19 1 4 3 -2 6 -13 5 -11 0 -14 -3 -6 -6z"/>
<path d="M1799 1933 c-1 -5 -1 -11 0 -15 0 -5 -3 -8 -9 -8 -11 0 -32 -69 -24
-82 8 -12 28 -10 50 7 18 15 18 15 0 8 -13 -4 -17 -3 -12 5 4 7 14 12 22 12
15 0 19 35 8 64 -6 16 -33 22 -35 9z"/>
<path d="M312 1898 c0 -20 2 -27 7 -19 6 10 12 9 25 -4 14 -15 16 -15 16 0 0
8 -7 18 -15 21 -8 4 -15 12 -15 20 0 30 -17 12 -18 -18z"/>
<path d="M1240 1920 c-13 -8 -13 -10 2 -10 9 0 20 5 23 10 8 13 -5 13 -25 0z"/>
<path d="M1437 1916 c-3 -8 2 -16 14 -19 17 -5 18 -3 7 11 -7 9 -13 18 -14 20
-1 2 -4 -4 -7 -12z"/>
<path d="M417 1884 c-3 -4 1 -17 10 -30 20 -32 27 -25 10 9 -8 15 -17 24 -20
21z"/>
<path d="M561 1874 c0 -11 3 -14 6 -6 3 7 2 16 -1 19 -3 4 -6 -2 -5 -13z"/>
<path d="M1538 1872 c-33 -19 -35 -28 -10 -40 17 -10 70 3 59 14 -3 3 -14 1
-25 -5 -19 -10 -32 -6 -32 11 0 4 18 7 40 5 30 -3 37 0 29 9 -7 8 -6 14 3 17
7 3 2 6 -12 6 -14 0 -37 -7 -52 -17z"/>
<path d="M1630 1880 c-19 -12 -4 -39 19 -37 15 1 17 4 9 14 -8 10 -7 12 6 7 9
-3 16 -2 16 4 0 13 -35 21 -50 12z"/>
<path d="M1715 1881 c-3 -5 -2 -12 3 -15 5 -3 9 1 9 9 0 17 -3 19 -12 6z"/>
<path d="M636 1866 c3 -9 11 -16 16 -16 13 0 5 23 -10 28 -7 2 -10 -2 -6 -12z"/>
<path d="M143 1845 c0 -7 6 -11 14 -8 7 3 13 6 13 8 0 2 -6 5 -13 8 -8 3 -14
-1 -14 -8z"/>
<path d="M343 1824 c3 -12 0 -30 -6 -40 -5 -10 -6 -16 -2 -12 5 4 14 3 22 -3
7 -6 13 -8 13 -3 0 5 4 3 8 -4 6 -9 12 -6 20 13 6 13 8 24 4 24 -24 -4 -40 4
-51 24 -11 21 -11 21 -8 1z"/>
<path d="M360 1830 c0 -5 5 -10 10 -10 6 0 10 5 10 10 0 6 -4 10 -10 10 -5 0
-10 -4 -10 -10z"/>
<path d="M511 1814 c0 -11 3 -14 6 -6 3 7 2 16 -1 19 -3 4 -6 -2 -5 -13z"/>
<path d="M1616 1811 c9 -9 45 -11 39 -2 -3 6 -14 9 -25 8 -10 -1 -17 -3 -14
-6z"/>
<path d="M1690 1800 c-12 -8 -10 -10 8 -10 13 0 20 4 17 10 -7 12 -6 12 -25 0z"/>
<path d="M440 1785 c-7 -9 -10 -25 -6 -41 5 -17 3 -23 -4 -19 -21 13 -9 -24
12 -40 25 -17 35 -6 19 22 -6 12 -6 25 1 37 7 13 7 21 -2 26 -7 4 -9 13 -6 19
10 16 1 13 -14 -4z"/>
<path d="M233 1772 c10 -10 17 -25 17 -32 0 -7 3 -10 7 -7 8 9 -17 57 -30 57
-6 0 -3 -8 6 -18z"/>
<path d="M260 1783 c1 -15 27 -43 33 -36 14 13 7 32 -10 26 -11 -4 -14 -3 -9
5 4 7 2 12 -3 12 -6 0 -11 -3 -11 -7z"/>
<path d="M490 1754 c0 -8 5 -12 10 -9 6 3 10 10 10 16 0 5 -4 9 -10 9 -5 0
-10 -7 -10 -16z"/>
<path d="M1838 1763 c12 -2 30 -2 40 0 9 3 -1 5 -23 4 -22 0 -30 -2 -17 -4z"/>
<path d="M535 1750 c-3 -5 -2 -10 4 -10 5 0 13 5 16 10 3 6 2 10 -4 10 -5 0
-13 -4 -16 -10z"/>
<path d="M1760 1741 c0 -5 9 -7 20 -4 11 3 20 7 20 9 0 2 -9 4 -20 4 -11 0
-20 -4 -20 -9z"/>
<path d="M322 1724 c-7 -7 -12 -17 -12 -21 0 -5 -4 -8 -10 -8 -18 0 -12 -16
24 -57 20 -22 36 -35 36 -28 0 8 -8 22 -17 33 -17 19 -17 19 4 13 12 -4 24 -3
27 2 3 6 -4 12 -16 15 -12 4 -26 1 -30 -6 -4 -6 -10 -8 -14 -4 -4 4 0 13 10
20 10 7 16 22 14 34 -2 18 -5 19 -16 7z"/>
<path d="M515 1721 c-3 -5 -1 -12 5 -16 5 -3 10 1 10 9 0 18 -6 21 -15 7z"/>
<path d="M1770 1655 c-8 -9 -8 -15 -2 -15 12 0 26 19 19 26 -2 2 -10 -2 -17
-11z"/>
<path d="M991 1624 c9 -11 10 -17 1 -23 -8 -4 -5 -10 8 -18 27 -18 34 9 9 36
-23 24 -38 29 -18 5z"/>
<path d="M1281 1613 c7 -12 15 -20 18 -17 3 2 -3 12 -13 22 -17 16 -18 16 -5
-5z"/>
<path d="M1890 1619 c0 -5 5 -7 10 -4 6 3 10 8 10 11 0 2 -4 4 -10 4 -5 0 -10
-5 -10 -11z"/>
<path d="M1171 1603 c0 -5 4 -17 9 -28 8 -18 9 -17 9 8 1 15 -3 27 -9 27 -5 0
-10 -3 -9 -7z"/>
<path d="M1725 1599 c-9 -14 -2 -20 14 -10 8 6 9 11 3 15 -6 3 -14 1 -17 -5z"/>
<path d="M160 1591 c0 -6 4 -13 10 -16 6 -3 7 1 4 9 -7 18 -14 21 -14 7z"/>
<path d="M326 1585 c4 -8 8 -15 10 -15 2 0 4 7 4 15 0 8 -4 15 -10 15 -5 0 -7
-7 -4 -15z"/>
<path d="M1246 1585 c-3 -9 0 -15 9 -15 9 0 12 6 9 15 -4 8 -7 15 -9 15 -2 0
-5 -7 -9 -15z"/>
<path d="M1062 1568 c3 -7 15 -15 28 -16 21 -3 22 -2 11 12 -16 19 -44 21 -39
4z"/>
<path d="M930 1559 c0 -4 9 -13 19 -19 13 -7 17 -16 14 -31 -5 -17 -3 -20 7
-14 9 6 12 4 8 -7 -4 -8 -2 -21 3 -29 6 -9 9 0 9 29 0 23 -4 42 -10 42 -5 0
-10 6 -10 14 0 7 -9 16 -20 19 -11 3 -20 1 -20 -4z"/>
<path d="M1770 1559 c0 -5 -4 -7 -10 -4 -5 3 -10 -1 -10 -10 0 -14 2 -15 21
-1 12 8 28 12 37 9 10 -4 13 -2 8 5 -9 15 -46 16 -46 1z"/>
<path d="M197 1546 c12 -20 65 -62 89 -70 18 -6 20 -3 16 24 -2 16 -8 27 -13
24 -5 -2 -16 4 -26 16 -20 23 -79 29 -66 6z"/>
<path d="M315 1535 c1 -14 6 -30 11 -35 7 -7 9 2 6 25 -5 40 -18 48 -17 10z"/>
<path d="M893 1517 c15 -6 27 -17 27 -24 0 -7 7 -13 16 -13 28 0 -12 44 -43
46 l-28 3 28 -12z"/>
<path d="M1247 1523 c-4 -3 -7 -13 -7 -21 0 -18 13 -7 16 13 2 17 1 18 -9 8z"/>
<path d="M1280 1514 c0 -15 26 -19 34 -5 3 5 -3 11 -14 14 -13 3 -20 0 -20 -9z"/>
<path d="M802 1503 c1 -5 -2 -20 -6 -35 -7 -24 -11 -26 -29 -17 -17 10 -19 9
-14 -5 8 -20 -10 -31 -27 -17 -20 16 -38 -11 -30 -43 3 -14 10 -26 14 -26 5 0
6 -9 3 -20 -8 -31 20 -24 40 10 24 40 34 38 47 -10 12 -46 3 -207 -13 -227 -6
-9 -6 -13 2 -13 6 0 11 -18 11 -42 0 -56 -23 -131 -35 -119 -6 5 -19 6 -29 2
-17 -7 -18 -8 -3 -14 10 -4 17 -2 17 5 0 7 5 6 15 -2 35 -29 4 -90 -46 -90
-52 0 -100 21 -118 52 -24 39 -96 249 -170 498 -13 44 -43 32 -65 -27 -12 -35
-24 -53 -35 -53 -11 0 -12 3 -4 8 7 4 9 13 4 21 -5 7 -6 23 -3 35 5 19 4 19
-11 7 -15 -12 -17 -11 -17 3 0 10 -5 14 -10 11 -7 -4 -7 -12 0 -24 5 -10 7
-21 4 -24 -4 -3 3 -19 15 -35 22 -31 25 -49 15 -77 -6 -14 -8 -14 -28 2 -21
18 -21 18 -3 -3 18 -22 14 -59 -6 -47 -6 3 -7 1 -3 -6 10 -16 -2 -48 -21 -55
-13 -5 -14 -4 -3 9 14 17 15 17 -23 33 -32 14 -31 10 9 -45 18 -24 20 -32 10
-36 -7 -3 -19 0 -25 6 -6 6 -11 9 -12 7 0 -3 -2 -13 -4 -23 -2 -9 5 -22 15
-27 11 -6 17 -17 14 -25 -4 -8 -10 -12 -15 -9 -5 3 -8 2 -7 -3 1 -4 -1 -19 -6
-33 -18 -59 -29 -80 -45 -80 -13 0 -13 -2 -2 -9 9 -6 10 -10 2 -16 -7 -4 -19
-1 -28 7 -15 11 -16 11 -10 -6 5 -12 2 -23 -9 -31 -24 -17 -9 -35 29 -35 30 0
31 0 11 -15 -26 -18 -48 -69 -40 -91 6 -15 9 -15 33 2 15 9 37 26 48 36 17 16
18 20 5 28 -8 5 -11 10 -6 10 5 0 2 7 -5 16 -12 14 -9 16 24 13 53 -5 66 13
33 44 -14 13 -26 31 -26 40 0 34 51 123 63 111 3 -3 11 -3 18 2 9 5 7 11 -6
20 -34 25 -12 30 115 26 l45 -2 23 -62 c39 -103 39 -114 2 -133 -17 -9 -30
-21 -28 -27 6 -17 445 -27 471 -11 14 9 -22 33 -50 33 -27 0 -30 5 -39 80 -9
78 -5 153 9 162 9 5 9 10 -1 20 -14 14 -16 54 -3 62 4 3 7 29 5 58 l-4 53 14
-31 c8 -17 16 -43 18 -57 2 -13 10 -32 17 -41 8 -9 24 -45 36 -79 12 -34 34
-93 49 -132 14 -38 26 -83 26 -98 0 -29 24 -47 41 -30 5 5 23 49 40 99 17 49
50 130 74 179 23 50 50 114 61 144 l19 55 11 -60 c10 -55 9 -312 -2 -361 -3
-15 -15 -25 -37 -31 -17 -4 -33 -15 -35 -23 -2 -12 19 -14 123 -14 91 0 125 3
125 12 0 16 -32 33 -62 33 -22 0 -25 6 -35 73 -17 106 -17 335 -1 355 8 10 9
13 1 9 -17 -10 -25 25 -14 56 5 14 7 28 3 32 -4 4 -2 6 3 5 24 -5 55 14 55 32
0 18 -5 19 -65 13 l-65 -7 -6 31 c-4 17 -10 31 -14 31 -10 0 -7 -64 4 -72 6
-4 6 -12 -1 -20 -6 -7 -16 -31 -23 -53 -11 -36 -35 -97 -77 -195 -20 -49 -56
-123 -66 -137 -15 -22 -55 39 -77 118 -23 84 -25 114 -8 103 7 -4 8 -3 4 5 -4
6 -11 9 -15 6 -8 -4 -36 53 -71 144 -9 21 -23 37 -42 43 l-29 10 26 22 c33 29
32 42 -6 50 -41 8 -49 8 -47 -1z m-379 -320 l25 -83 -63 0 c-35 0 -67 5 -70
10 -3 6 -1 10 4 10 6 0 11 9 11 21 0 13 4 18 12 13 7 -4 8 -3 4 4 -6 10 3 48
30 122 8 21 16 4 47 -97z m-236 -409 c-3 -3 -12 -4 -19 -1 -8 3 -5 6 6 6 11 1
17 -2 13 -5z"/>
<path d="M1880 1495 c-17 -20 -5 -32 15 -15 13 11 14 10 9 -4 -5 -12 0 -16 17
-16 18 0 20 3 10 9 -8 5 -11 16 -8 25 8 21 -26 22 -43 1z"/>
<path d="M1140 1490 c0 -6 8 -14 18 -17 9 -4 22 -14 29 -22 11 -14 12 -13 13
7 0 12 -4 23 -10 23 -20 3 -25 4 -37 12 -8 5 -13 4 -13 -3z"/>
<path d="M896 1475 c-3 -9 0 -15 9 -15 16 0 20 16 6 24 -5 3 -11 -1 -15 -9z"/>
<path d="M1840 1480 c0 -5 5 -10 11 -10 5 0 7 5 4 10 -3 6 -8 10 -11 10 -2 0
-4 -4 -4 -10z"/>
<path d="M1360 1465 c0 -8 4 -15 10 -15 5 0 7 7 4 15 -4 8 -8 15 -10 15 -2 0
-4 -7 -4 -15z"/>
<path d="M186 1451 c-17 -19 -17 -19 2 -14 12 3 23 11 26 19 8 20 -8 17 -28
-5z"/>
<path d="M206 1429 c-11 -11 -16 -22 -13 -26 4 -3 7 -1 7 5 0 7 5 12 10 12 6
0 8 -11 4 -26 -5 -19 -1 -29 15 -40 12 -9 18 -20 15 -26 -4 -6 2 -6 15 1 25
14 27 27 6 35 -8 3 -15 10 -15 16 0 6 5 8 10 5 6 -3 10 -1 10 4 0 6 -3 11 -8
11 -4 0 -14 11 -22 24 -15 23 -15 23 -34 5z"/>
<path d="M1030 1429 c0 -5 5 -7 10 -4 6 3 10 8 10 11 0 2 -4 4 -10 4 -5 0 -10
-5 -10 -11z"/>
<path d="M1430 1418 c0 -19 2 -20 10 -8 8 13 10 12 10 -2 0 -10 -7 -18 -15
-18 -12 0 -10 -7 9 -27 14 -15 22 -31 19 -36 -3 -6 -1 -7 5 -3 6 4 9 13 6 20
-3 8 -1 17 5 20 6 4 9 -4 8 -21 -2 -23 2 -28 21 -28 13 0 27 -7 32 -15 13 -20
13 -63 0 -55 -6 4 -8 10 -5 15 3 5 -6 7 -20 4 -17 -3 -25 0 -25 10 0 7 -6 19
-14 26 -12 9 -15 8 -13 -11 2 -29 42 -73 58 -64 7 5 10 3 7 -6 -3 -8 -11 -13
-17 -12 -6 2 -11 -2 -11 -7 0 -14 23 -13 38 2 9 9 12 -12 12 -97 0 -61 -3
-120 -6 -133 -6 -22 -33 -34 -84 -36 -15 -1 -27 -7 -27 -14 0 -13 56 -7 89 9
26 14 32 -8 13 -47 -11 -24 -23 -34 -39 -34 -26 0 -51 -24 -42 -39 5 -7 15 -7
32 -1 15 6 23 6 19 1 -3 -6 9 -8 29 -4 32 5 34 4 30 -18 -5 -22 -4 -22 11 4
17 30 36 34 55 12 8 -10 18 -12 29 -6 9 5 51 11 93 14 43 3 96 14 122 25 37
17 47 18 56 7 6 -8 19 -11 28 -8 14 5 14 4 -1 -8 -11 -9 -16 -21 -11 -32 8
-22 36 -22 33 1 -4 40 0 44 34 37 32 -7 32 -7 12 12 -23 22 -81 41 -70 23 3
-5 -1 -10 -9 -10 -22 0 -20 17 2 29 13 7 23 6 31 -2 10 -9 11 -7 6 13 -4 19 0
31 14 44 12 11 21 26 21 35 0 12 3 12 12 3 7 -7 20 -12 30 -12 26 0 24 47 -2
55 -17 5 -19 12 -13 53 3 26 10 48 14 50 4 2 1 15 -7 30 -8 15 -14 34 -14 42
0 23 -23 82 -42 109 -9 13 -14 29 -11 34 3 6 1 7 -6 3 -13 -9 -59 18 -78 45
-7 10 -21 15 -31 12 -10 -2 -24 2 -30 10 -10 12 -44 14 -193 11 -113 -3 -187
0 -200 6 -16 9 -19 7 -19 -12z m395 -56 c55 -21 119 -92 111 -121 -3 -9 -1
-23 4 -31 5 -8 10 -10 10 -5 0 6 5 3 10 -5 5 -8 9 -26 9 -40 0 -25 0 -25 -9
-2 -10 23 -21 31 -16 10 1 -7 1 -10 -1 -5 -3 4 -8 5 -13 2 -4 -3 -7 3 -6 12 1
16 -7 19 -45 14 -8 -1 -8 -5 1 -16 7 -8 17 -12 23 -8 5 3 7 1 3 -5 -3 -6 -2
-13 4 -17 5 -3 10 -16 11 -28 0 -12 3 -16 6 -9 4 10 8 10 19 1 11 -9 14 -8 14
5 0 10 5 14 10 11 15 -9 1 -83 -28 -140 -29 -60 -92 -121 -134 -129 -17 -3
-57 -6 -89 -6 -95 0 -99 7 -100 198 -1 242 2 316 11 327 14 17 141 8 195 -13z
m-275 -23 c0 -4 -12 -9 -27 -12 -24 -4 -26 -4 -10 8 9 7 17 18 17 26 0 11 2
11 10 -1 5 -8 10 -18 10 -21z"/>
<path d="M1867 1214 c3 -7 9 -14 14 -14 14 0 10 17 -5 23 -10 4 -13 1 -9 -9z"/>
<path d="M1885 1069 c-4 -6 -4 -13 -1 -16 3 -4 6 -1 6 6 0 7 5 9 10 6 6 -3 10
-1 10 4 0 14 -17 14 -25 0z"/>
<path d="M1890 1001 c0 -5 7 -15 17 -22 15 -13 15 -12 4 9 -12 23 -21 28 -21
13z"/>
<path d="M1979 1423 c-12 -15 -12 -16 4 -10 10 4 23 7 28 7 6 0 7 5 4 10 -9
15 -21 12 -36 -7z"/>
<path d="M346 1415 c4 -8 7 -15 9 -15 2 0 5 7 9 15 3 9 0 15 -9 15 -9 0 -12
-6 -9 -15z"/>
<path d="M1860 1420 c0 -5 4 -10 9 -10 6 0 13 5 16 10 3 6 -1 10 -9 10 -9 0
-16 -4 -16 -10z"/>
<path d="M150 1399 c0 -5 5 -7 10 -4 6 3 10 8 10 11 0 2 -4 4 -10 4 -5 0 -10
-5 -10 -11z"/>
<path d="M1065 1390 c5 -15 2 -20 -11 -20 -16 0 -16 -1 2 -14 17 -13 20 -13
25 2 7 21 0 52 -13 52 -5 0 -6 -9 -3 -20z"/>
<path d="M1976 1385 c4 -8 12 -15 20 -15 19 0 18 16 -2 24 -22 9 -24 8 -18 -9z"/>
<path d="M351 1374 c0 -11 3 -14 6 -6 3 7 2 16 -1 19 -3 4 -6 -2 -5 -13z"/>
<path d="M999 1343 c-13 -16 -12 -17 4 -4 9 7 17 15 17 17 0 8 -8 3 -21 -13z"/>
<path d="M2005 1329 c-3 -4 -1 -10 5 -14 5 -3 10 -3 10 0 0 4 7 -1 16 -9 8 -9
22 -16 30 -16 17 0 19 39 2 41 -7 1 -23 3 -36 4 -12 1 -25 -1 -27 -6z"/>
<path d="M220 1320 c0 -9 6 -22 13 -29 12 -14 9 -14 -40 6 -10 4 -14 2 -10 -4
4 -7 -8 -9 -38 -5 -54 6 -60 -10 -12 -38 17 -10 37 -23 43 -29 8 -6 15 -6 23
2 14 14 14 34 -1 43 -7 5 -8 3 -3 -6 5 -9 4 -11 -4 -6 -19 12 -1 28 24 22 31
-8 37 3 19 34 -8 16 -13 19 -14 10z"/>
<path d="M557 1309 c4 -13 8 -18 11 -10 2 7 -1 18 -6 23 -8 8 -9 4 -5 -13z"/>
<path d="M691 1299 c0 -15 8 -34 19 -44 11 -10 20 -13 20 -7 0 6 3 17 6 26 3
9 1 16 -6 16 -6 0 -8 -4 -5 -10 3 -5 -1 -10 -9 -10 -8 0 -16 12 -19 28 l-4 27
-2 -26z"/>
<path d="M260 1301 c0 -6 5 -13 10 -16 6 -3 10 1 10 9 0 9 -4 16 -10 16 -5 0
-10 -4 -10 -9z"/>
<path d="M601 1291 c-1 -20 1 -21 14 -11 16 14 21 25 6 16 -5 -4 -12 0 -14 6
-3 7 -6 2 -6 -11z"/>
<path d="M650 1243 c0 -23 15 -39 24 -25 3 5 -1 18 -9 28 -14 18 -14 18 -15
-3z"/>
<path d="M1054 1237 c1 -16 7 -23 21 -23 11 1 20 -4 20 -11 0 -6 3 -15 8 -19
4 -4 7 -2 7 5 0 8 7 11 15 7 8 -3 15 -1 15 4 0 6 -7 10 -15 10 -8 0 -15 4 -15
8 0 4 -13 15 -29 25 -28 17 -29 17 -27 -6z"/>
<path d="M686 1215 c-4 -12 3 -15 32 -14 20 1 29 3 20 6 -10 2 -18 9 -18 14 0
15 -27 10 -34 -6z"/>
<path d="M580 1204 c0 -16 37 -47 48 -40 12 7 3 46 -10 46 -6 0 -8 -10 -5 -22
6 -22 6 -22 -13 2 -11 14 -20 20 -20 14z"/>
<path d="M1465 1200 c-3 -5 1 -10 9 -10 9 0 16 5 16 10 0 6 -4 10 -9 10 -6 0
-13 -4 -16 -10z"/>
<path d="M120 1166 c0 -8 71 -48 76 -43 3 3 0 15 -6 27 -9 16 -14 19 -20 10
-6 -9 -12 -9 -29 -1 -11 7 -21 10 -21 7z"/>
<path d="M763 1152 c-7 -4 -9 -13 -5 -19 6 -9 11 -6 20 7 13 21 6 26 -15 12z"/>
<path d="M1437 1129 c4 -16 8 -17 14 -7 13 19 11 28 -5 28 -9 0 -12 -7 -9 -21z"/>
<path d="M137 1114 c2 -7 11 -10 19 -7 19 7 18 10 -5 16 -13 3 -18 1 -14 -9z"/>
<path d="M630 1117 c0 -7 6 -22 14 -33 19 -25 37 -7 22 21 -13 23 -36 31 -36
12z"/>
<path d="M1368 1113 c-10 -11 -18 -22 -18 -25 0 -4 8 -5 18 -3 9 2 27 4 40 4
14 1 20 5 17 12 -4 6 -13 8 -20 5 -8 -3 -15 2 -17 11 -3 13 -6 12 -20 -4z"/>
<path d="M130 1055 c0 -9 6 -12 15 -9 14 6 17 1 19 -36 1 -19 33 -25 33 -6 0
8 -3 13 -7 11 -4 -2 -12 6 -18 20 -10 21 -8 24 11 28 13 3 7 5 -15 6 -27 1
-38 -3 -38 -14z"/>
<path d="M725 1050 c3 -5 8 -10 11 -10 2 0 4 5 4 10 0 6 -5 10 -11 10 -5 0 -7
-4 -4 -10z"/>
<path d="M704 1029 c19 -15 25 -27 21 -40 -4 -10 -2 -19 4 -19 5 0 16 -3 24
-6 8 -3 17 2 20 10 4 10 1 13 -8 9 -9 -3 -18 3 -22 13 -8 21 -43 53 -57 54 -5
0 3 -9 18 -21z"/>
<path d="M1500 1025 c-7 -9 -19 -14 -27 -11 -8 3 -11 1 -8 -4 3 -6 2 -10 -2
-10 -5 0 -9 -9 -9 -20 0 -12 7 -20 17 -20 19 0 35 30 16 30 -7 0 1 12 16 25
15 14 24 25 19 25 -5 0 -15 -7 -22 -15z"/>
<path d="M605 990 c3 -5 16 -10 28 -10 18 0 19 2 7 10 -20 13 -43 13 -35 0z"/>
<path d="M126 971 c-12 -5 -15 -10 -9 -14 6 -4 16 0 23 8 14 17 13 17 -14 6z"/>
<path d="M325 970 c-19 -7 -19 -8 -2 -15 19 -8 31 -2 26 13 -2 5 -13 6 -24 2z"/>
<path d="M260 930 c0 -5 4 -10 9 -10 6 0 13 5 16 10 3 6 -1 10 -9 10 -9 0 -16
-4 -16 -10z"/>
<path d="M1401 924 c0 -11 3 -14 6 -6 3 7 2 16 -1 19 -3 4 -6 -2 -5 -13z"/>
<path d="M1167 923 c-4 -3 -7 -15 -7 -27 0 -20 0 -20 15 0 8 10 15 22 15 27 0
9 -14 9 -23 0z"/>
<path d="M615 910 c3 -5 10 -10 16 -10 5 0 9 5 9 10 0 6 -7 10 -16 10 -8 0
-12 -4 -9 -10z"/>
<path d="M688 913 c7 -3 16 -2 19 1 4 3 -2 6 -13 5 -11 0 -14 -3 -6 -6z"/>
<path d="M1130 895 c0 -8 4 -15 10 -15 5 0 7 7 4 15 -4 8 -8 15 -10 15 -2 0
-4 -7 -4 -15z"/>
<path d="M686 871 c-4 -7 -5 -15 -2 -18 9 -9 19 4 14 18 -4 11 -6 11 -12 0z"/>
<path d="M1872 818 c-17 -17 -15 -53 3 -68 8 -7 17 -27 21 -46 6 -31 7 -32 22
-17 12 12 13 18 4 21 -6 2 -12 10 -12 18 0 9 5 12 10 9 6 -3 10 1 10 9 0 8 -4
17 -9 20 -4 3 -11 19 -14 36 -7 32 -16 37 -35 18z"/>
<path d="M330 790 c0 -5 5 -10 10 -10 6 0 10 5 10 10 0 6 -4 10 -10 10 -5 0
-10 -4 -10 -10z"/>
<path d="M990 796 c0 -2 8 -10 18 -17 15 -13 16 -12 3 4 -13 16 -21 21 -21 13z"/>
<path d="M1060 785 c0 -8 -5 -15 -11 -15 -5 0 -7 -5 -4 -10 4 -6 11 -8 16 -5
5 4 9 1 9 -4 0 -6 -5 -11 -11 -11 -5 0 -7 -4 -4 -10 12 -20 21 -9 23 30 2 23
-2 40 -8 40 -5 0 -10 -7 -10 -15z"/>
<path d="M270 780 c0 -5 5 -10 11 -10 5 0 7 5 4 10 -3 6 -8 10 -11 10 -2 0 -4
-4 -4 -10z"/>
<path d="M1515 770 c4 -6 11 -8 16 -5 14 9 11 15 -7 15 -8 0 -12 -5 -9 -10z"/>
<path d="M313 755 c-8 -22 6 -33 17 -15 13 20 12 30 0 30 -6 0 -13 -7 -17 -15z"/>
<path d="M1466 739 c-10 -17 -15 -33 -12 -36 3 -3 9 3 12 13 4 10 14 27 22 37
8 9 11 17 6 17 -5 0 -18 -14 -28 -31z"/>
<path d="M358 753 c7 -3 16 -2 19 1 4 3 -2 6 -13 5 -11 0 -14 -3 -6 -6z"/>
<path d="M1324 744 c3 -9 6 -21 6 -27 0 -8 3 -8 10 -1 12 12 3 44 -12 44 -6 0
-7 -7 -4 -16z"/>
<path d="M283 723 c4 -6 1 -13 -7 -15 -10 -2 -4 -15 21 -43 19 -22 32 -34 28
-27 -5 9 -1 13 11 12 36 -4 55 0 49 10 -3 6 1 10 10 10 9 0 13 5 10 11 -5 7
-14 4 -28 -8 -11 -10 -17 -12 -13 -5 4 7 0 15 -11 19 -10 3 -31 15 -47 27 -16
11 -26 15 -23 9z m57 -57 c0 -2 -7 -7 -16 -10 -8 -3 -12 -2 -9 4 6 10 25 14
25 6z"/>
<path d="M756 712 c-3 -5 1 -15 8 -21 11 -10 14 -9 12 3 -3 21 -13 29 -20 18z"/>
<path d="M1020 713 c0 -17 16 -31 27 -25 9 6 6 11 -7 20 -11 7 -20 9 -20 5z"/>
<path d="M190 699 c0 -5 5 -7 10 -4 6 3 10 8 10 11 0 2 -4 4 -10 4 -5 0 -10
-5 -10 -11z"/>
<path d="M796 703 c-13 -13 -6 -35 10 -29 9 3 12 2 9 -5 -4 -5 -15 -7 -26 -4
-12 4 -19 2 -19 -7 1 -33 53 -67 75 -48 10 8 13 7 11 -6 0 -9 4 -19 10 -21 7
-2 10 10 10 32 -1 22 -6 35 -14 35 -7 0 -11 4 -8 9 9 14 -46 56 -58 44z"/>
<path d="M1980 690 c0 -14 7 -20 22 -20 12 0 30 -8 41 -17 18 -17 18 -16 -1
16 -24 40 -62 53 -62 21z"/>
<path d="M256 681 c-4 -7 -5 -15 -2 -18 9 -9 19 4 14 18 -4 11 -6 11 -12 0z"/>
<path d="M1395 675 l-40 -12 32 -5 c18 -2 31 -2 28 0 -3 3 3 11 13 18 20 16
19 16 -33 -1z"/>
<path d="M1863 675 c-3 -9 -3 -18 -1 -21 3 -3 8 4 11 16 6 23 -1 27 -10 5z"/>
<path d="M169 659 c-13 -11 -18 -18 -11 -14 6 3 12 1 12 -5 0 -7 6 -8 18 -1
11 6 24 6 36 -1 18 -10 18 -12 2 -23 -15 -11 -14 -13 9 -19 14 -4 25 -11 25
-16 0 -5 10 1 23 13 22 21 22 23 6 39 -10 10 -25 15 -33 12 -9 -3 -16 -1 -16
5 0 6 -7 11 -15 11 -8 0 -15 5 -15 10 0 16 -16 12 -41 -11z"/>
<path d="M907 673 c-12 -11 -8 -35 5 -27 8 5 9 2 5 -9 -3 -9 -2 -19 4 -23 5
-3 9 -13 7 -22 -3 -18 2 -22 27 -22 8 0 15 7 15 15 0 8 5 15 10 15 6 0 10 16
10 35 0 19 -5 35 -11 35 -6 0 -9 -9 -6 -20 6 -24 -16 -56 -32 -46 -7 5 -10 15
-7 23 7 16 -17 56 -27 46z"/>
<path d="M1177 666 c-4 -10 -5 -21 -2 -24 9 -9 17 6 13 25 -3 17 -4 17 -11 -1z"/>
<path d="M1220 656 c0 -13 -3 -33 -6 -43 -4 -14 -4 -15 4 -3 15 25 23 70 12
70 -5 0 -10 -11 -10 -24z"/>
<path d="M1920 660 c0 -11 2 -20 4 -20 2 0 6 9 9 20 3 11 1 20 -4 20 -5 0 -9
-9 -9 -20z"/>
<path d="M1300 644 c0 -8 7 -14 15 -14 8 0 15 -8 15 -17 0 -15 2 -16 10 -3 6
10 6 16 0 18 -6 2 -8 7 -5 12 3 4 -4 10 -15 13 -13 3 -20 0 -20 -9z"/>
<path d="M1277 643 c-4 -3 -7 -11 -7 -17 0 -6 5 -5 12 2 6 6 9 14 7 17 -3 3
-9 2 -12 -2z"/>
<path d="M1360 614 c0 -8 5 -12 10 -9 6 4 8 11 5 16 -9 14 -15 11 -15 -7z"/>
<path d="M336 605 c4 -8 1 -15 -5 -15 -12 0 6 -39 24 -52 5 -4 2 -10 -8 -14
-9 -3 -17 -10 -17 -16 0 -5 14 -1 30 9 32 18 41 37 14 26 -13 -5 -15 -2 -10
15 4 11 1 30 -6 41 -15 24 -30 28 -22 6z"/>
<path d="M1932 604 c-14 -16 -5 -18 17 -5 7 5 9 11 5 14 -5 3 -15 -1 -22 -9z"/>
<path d="M1267 603 c-4 -3 -7 -11 -7 -17 0 -6 5 -5 12 2 6 6 9 14 7 17 -3 3
-9 2 -12 -2z"/>
<path d="M1860 599 c0 -5 5 -7 10 -4 6 3 10 8 10 11 0 2 -4 4 -10 4 -5 0 -10
-5 -10 -11z"/>
<path d="M393 580 c1 -10 4 -17 8 -15 3 3 15 -2 25 -10 22 -16 38 -20 30 -6
-4 5 -1 11 5 13 7 2 -7 11 -29 20 -38 15 -41 15 -39 -2z"/>
<path d="M1067 573 c-12 -11 -8 -23 7 -23 7 0 19 7 26 15 10 12 9 15 -7 15
-11 0 -23 -3 -26 -7z"/>
<path d="M1340 560 c-8 -5 -12 -11 -9 -14 3 -3 14 1 25 9 21 16 8 20 -16 5z"/>
<path d="M1920 541 c7 -14 6 -21 -3 -24 -9 -3 -9 -8 2 -18 12 -12 13 -12 6 0
-5 9 -3 12 6 9 8 -3 13 -10 12 -15 -2 -12 36 -14 59 -2 41 22 11 56 -58 64
-32 5 -34 3 -24 -14z"/>
<path d="M1828 515 c2 -14 6 -25 8 -25 2 0 4 11 4 25 0 14 -4 25 -9 25 -4 0
-6 -11 -3 -25z"/>
<path d="M407 519 c7 -7 15 -10 18 -7 3 3 -2 9 -12 12 -14 6 -15 5 -6 -5z"/>
<path d="M888 513 c7 -3 16 -2 19 1 4 3 -2 6 -13 5 -11 0 -14 -3 -6 -6z"/>
<path d="M1730 511 c0 -11 31 -24 39 -16 3 3 -1 10 -9 15 -19 12 -30 12 -30 1z"/>
<path d="M1694 477 c-1 -15 7 -26 22 -34 23 -11 23 -10 11 20 -16 38 -32 45
-33 14z"/>
<path d="M446 461 c-3 -5 0 -11 6 -14 7 -2 -2 -11 -19 -21 -24 -12 -33 -23
-33 -41 0 -14 6 -25 13 -25 19 0 87 65 79 76 -15 21 -40 35 -46 25z"/>
<path d="M1861 460 c1 -8 5 -26 9 -40 l8 -25 1 25 c0 14 -4 32 -9 40 -9 13
-10 13 -9 0z"/>
<path d="M587 435 c3 -9 2 -15 -3 -13 -5 2 -11 -1 -14 -7 -3 -6 10 -11 28 -12
l34 -1 -23 24 c-26 28 -31 30 -22 9z"/>
<path d="M1145 439 c-4 -6 -5 -12 -2 -15 2 -3 7 2 10 11 7 17 1 20 -8 4z"/>
<path d="M1830 441 c0 -5 5 -13 10 -16 6 -3 10 -2 10 4 0 5 -4 13 -10 16 -5 3
-10 2 -10 -4z"/>
<path d="M1624 421 c0 -11 4 -17 8 -15 4 3 8 12 8 20 0 8 -4 14 -8 14 -4 0 -8
-9 -8 -19z"/>
<path d="M523 423 c4 -3 -1 -12 -11 -20 -15 -13 -15 -13 6 -3 19 9 23 30 5 30
-4 0 -3 -3 0 -7z"/>
<path d="M1745 390 c3 -5 1 -10 -5 -10 -6 0 -8 -4 -5 -10 10 -17 25 -11 25 10
0 11 -5 20 -11 20 -5 0 -7 -4 -4 -10z"/>
<path d="M1670 371 c0 -5 7 -11 15 -15 8 -3 15 -1 15 3 0 5 -7 11 -15 15 -8 3
-15 1 -15 -3z"/>
<path d="M559 362 c-1 -4 -1 -10 0 -14 0 -5 -2 -8 -6 -8 -5 0 -19 -9 -33 -20
l-25 -21 30 13 c17 6 35 16 42 21 7 5 18 5 25 1 7 -4 10 -4 6 1 -4 4 -4 13 2
19 6 8 1 12 -16 14 -13 1 -25 -2 -25 -6z"/>
<path d="M635 360 c-3 -5 1 -10 9 -10 9 0 16 5 16 10 0 6 -4 10 -9 10 -6 0
-13 -4 -16 -10z"/>
<path d="M360 340 c0 -5 7 -7 15 -4 8 4 15 8 15 10 0 2 -7 4 -15 4 -8 0 -15
-4 -15 -10z"/>
<path d="M1551 334 c0 -11 3 -14 6 -6 3 7 2 16 -1 19 -3 4 -6 -2 -5 -13z"/>
<path d="M1591 324 c6 -16 12 -40 14 -52 1 -13 12 -33 24 -45 20 -21 21 -21
21 -2 0 31 -11 65 -19 60 -4 -2 -7 5 -7 17 1 11 -9 27 -22 35 -22 16 -22 16
-11 -13z"/>
<path d="M605 320 c-4 -7 2 -9 19 -4 22 5 25 3 20 -12 -5 -15 -4 -16 4 -4 6 8
8 18 6 22 -7 12 -42 10 -49 -2z"/>
<path d="M1490 318 c0 -4 7 -8 15 -8 8 0 15 4 15 8 0 5 -7 9 -15 9 -8 0 -15
-4 -15 -9z"/>
<path d="M1531 304 c0 -11 3 -14 6 -6 3 7 2 16 -1 19 -3 4 -6 -2 -5 -13z"/>
<path d="M1431 302 c1 -4 0 -10 -1 -14 -7 -22 -4 -74 4 -84 16 -18 56 7 56 36
0 19 3 21 12 12 7 -7 15 -12 19 -12 14 0 2 33 -16 46 -16 12 -21 10 -38 -19
-21 -33 -36 -23 -18 11 8 15 7 21 -4 26 -8 3 -14 2 -14 -2z m34 -78 c-10 -7
-22 -11 -27 -8 -5 3 -1 12 9 19 10 7 22 11 27 8 5 -4 1 -12 -9 -19z"/>
<path d="M660 279 c-8 -5 -11 -9 -6 -9 5 0 -3 -12 -18 -26 -15 -16 -26 -38
-26 -53 0 -25 1 -25 40 17 39 41 49 65 32 76 -4 2 -14 1 -22 -5z"/>
<path d="M822 265 c-9 -11 -10 -20 -2 -35 13 -25 36 -26 44 -2 3 9 9 24 12 32
5 13 4 13 -5 0 -9 -13 -11 -13 -11 3 0 21 -20 22 -38 2z"/>
<path d="M1325 260 c-3 -6 1 -7 9 -4 18 7 21 14 7 14 -6 0 -13 -4 -16 -10z"/>
<path d="M1370 250 c0 -6 7 -10 15 -10 8 0 15 2 15 4 0 2 -7 6 -15 10 -8 3
-15 1 -15 -4z"/>
<path d="M1277 223 c-11 -13 -17 -27 -14 -30 3 -2 13 7 23 21 22 34 15 42 -9
9z"/>
<path d="M1203 221 c-12 -10 -19 -21 -16 -25 4 -3 1 -6 -6 -6 -22 0 -5 -25 17
-26 24 -1 29 15 10 36 -11 12 -10 12 5 1 11 -9 17 -27 17 -52 0 -22 5 -39 10
-39 6 0 10 26 10 58 0 40 -3 53 -10 42 -9 -13 -10 -13 -11 0 -1 8 -1 18 0 23
1 10 -1 9 -26 -12z"/>
<path d="M745 219 c4 -6 -1 -16 -11 -24 -11 -7 -16 -16 -13 -19 3 -4 23 7 44
24 21 16 34 30 28 30 -5 0 -14 -5 -21 -12 -9 -9 -12 -9 -12 0 0 7 -5 12 -11
12 -5 0 -7 -5 -4 -11z"/>
<path d="M1030 220 c0 -13 11 -13 30 0 12 8 11 10 -7 10 -13 0 -23 -4 -23 -10z"/>
<path d="M1113 224 c9 -9 -16 -32 -30 -27 -6 3 -20 0 -30 -6 -16 -9 -16 -10 6
-11 24 0 24 0 5 -15 -18 -13 -18 -14 6 -8 27 7 52 27 44 36 -3 3 3 4 12 4 10
-1 20 6 22 16 2 12 -3 17 -19 17 -12 0 -20 -3 -16 -6z"/>
<path d="M1340 208 c1 -33 32 -92 51 -96 13 -2 16 7 15 57 l-1 61 -32 0 c-28
0 -33 -4 -33 -22z"/>
<path d="M910 195 c-11 -13 -10 -14 4 -9 9 3 16 10 16 15 0 13 -6 11 -20 -6z"/>
<path d="M816 183 c-6 -14 -5 -15 5 -6 7 7 10 15 7 18 -3 3 -9 -2 -12 -12z"/>
<path d="M860 130 c-20 -16 -21 -20 -8 -20 10 0 22 9 28 20 13 25 11 25 -20 0z"/>
<path d="M1118 136 c-19 -14 -24 -36 -9 -36 4 0 7 -12 5 -27 -4 -26 -3 -26 11
6 9 18 15 42 13 52 -3 15 -6 16 -20 5z"/>
<path d="M1031 124 c0 -11 3 -14 6 -6 3 7 2 16 -1 19 -3 4 -6 -2 -5 -13z"/>
<path d="M939 114 c-15 -19 -3 -63 24 -84 27 -22 37 -17 37 18 0 63 -33 99
-61 66z m8 -36 c-3 -8 -6 -5 -6 6 -1 11 2 17 5 13 3 -3 4 -12 1 -19z"/>
<path d="M375 70 c3 -5 8 -10 11 -10 2 0 4 5 4 10 0 6 -5 10 -11 10 -5 0 -7
-4 -4 -10z"/>
<path d="M425 50 c-3 -5 -1 -10 4 -10 6 0 11 5 11 10 0 6 -2 10 -4 10 -3 0 -8
-4 -11 -10z"/>
</g>
</svg>
